<svg width="256" height="256" viewBox="0 0 256 256" fill="none" xmlns="http://www.w3.org/2000/svg">
<circle cx="128" cy="128" r="128" fill="#2051CF"/>
<path d="M119.818 147.818V147.273C119.879 141.485 120.485 136.879 121.636 133.455C122.788 130.03 124.424 127.258 126.545 125.136C128.667 123.015 131.212 121.061 134.182 119.273C135.97 118.182 137.576 116.894 139 115.409C140.424 113.894 141.545 112.152 142.364 110.182C143.212 108.212 143.636 106.03 143.636 103.636C143.636 100.667 142.939 98.0909 141.545 95.9091C140.152 93.7273 138.288 92.0455 135.955 90.8636C133.621 89.6818 131.03 89.0909 128.182 89.0909C125.697 89.0909 123.303 89.6061 121 90.6364C118.697 91.6667 116.773 93.2879 115.227 95.5C113.682 97.7121 112.788 100.606 112.545 104.182H101.091C101.333 99.0303 102.667 94.6212 105.091 90.9545C107.545 87.2879 110.773 84.4848 114.773 82.5454C118.803 80.6061 123.273 79.6364 128.182 79.6364C133.515 79.6364 138.152 80.697 142.091 82.8182C146.061 84.9394 149.121 87.8485 151.273 91.5454C153.455 95.2424 154.545 99.4545 154.545 104.182C154.545 107.515 154.03 110.53 153 113.227C152 115.924 150.545 118.333 148.636 120.455C146.758 122.576 144.485 124.455 141.818 126.091C139.152 127.758 137.015 129.515 135.409 131.364C133.803 133.182 132.636 135.348 131.909 137.864C131.182 140.379 130.788 143.515 130.727 147.273V147.818H119.818ZM125.636 174.727C123.394 174.727 121.47 173.924 119.864 172.318C118.258 170.712 117.455 168.788 117.455 166.545C117.455 164.303 118.258 162.379 119.864 160.773C121.47 159.167 123.394 158.364 125.636 158.364C127.879 158.364 129.803 159.167 131.409 160.773C133.015 162.379 133.818 164.303 133.818 166.545C133.818 168.03 133.439 169.394 132.682 170.636C131.955 171.879 130.97 172.879 129.727 173.636C128.515 174.364 127.152 174.727 125.636 174.727Z" fill="white"/>
</svg>
