<svg width="256" height="256" viewBox="0 0 256 256" fill="none" xmlns="http://www.w3.org/2000/svg">
<circle cx="128" cy="128" r="128" fill="white"/>
<path d="M127.5 154.5C138.546 154.5 147.5 145.546 147.5 134.5C147.5 123.454 138.546 114.5 127.5 114.5C116.454 114.5 107.5 123.454 107.5 134.5C107.5 145.546 116.454 154.5 127.5 154.5Z" fill="black"/>
<path d="M108.75 72L97.3125 84.5H77.5C70.625 84.5 65 90.125 65 97V172C65 178.875 70.625 184.5 77.5 184.5H177.5C184.375 184.5 190 178.875 190 172V97C190 90.125 184.375 84.5 177.5 84.5H157.687L146.25 72H108.75ZM127.5 165.75C110.25 165.75 96.25 151.75 96.25 134.5C96.25 117.25 110.25 103.25 127.5 103.25C144.75 103.25 158.75 117.25 158.75 134.5C158.75 151.75 144.75 165.75 127.5 165.75Z" fill="black"/>
</svg>
